<svg width="321.020264" height="312.141602" viewBox="0 0 321.02 312.142" fill="none" xmlns="http://www.w3.org/2000/svg" xmlns:xlink="http://www.w3.org/1999/xlink">
	<desc>
			Created with Pixso.
	</desc>
	<defs>
		<filter id="filter_23_1408_dd" x="0.000000" y="0.000000" width="321.020264" height="312.141602" filterUnits="userSpaceOnUse" color-interpolation-filters="sRGB">
			<feFlood flood-opacity="0" result="BackgroundImageFix"/>
			<feColorMatrix in="SourceAlpha" type="matrix" values="0 0 0 0 0 0 0 0 0 0 0 0 0 0 0 0 0 0 127 0" result="hardAlpha"/>
			<feOffset dx="0" dy="1"/>
			<feGaussianBlur stdDeviation="1.33333"/>
			<feComposite in2="hardAlpha" operator="out" k2="-1" k3="1"/>
			<feColorMatrix type="matrix" values="0 0 0 0 0.11373 0 0 0 0 0.05098 0 0 0 0 0.19216 0 0 0 1 0"/>
			<feBlend mode="normal" in2="BackgroundImageFix" result="effect_dropShadow_1"/>
			<feBlend mode="normal" in="SourceGraphic" in2="effect_dropShadow_1" result="shape"/>
		</filter>
	</defs>
	<g filter="url(#filter_23_1408_dd)">
		<path id="Vector 6" d="M23.12 101.21C23.12 93.13 28.35 65.66 30.97 52.94C36.95 50.32 49.93 45.08 53.97 45.08C58.01 45.08 82.58 26.78 82.58 23.19C82.58 19.6 93.05 8.6 98.29 3.55L132.51 11.97L180.76 3.55L218.34 23.19L235.17 17.58C239.1 22.63 246.95 33.97 246.95 38.91C246.95 43.85 265.47 48.9 265.47 52.94C265.47 56.98 282.97 72.36 283.42 75.95C283.87 79.54 297.82 94.29 304.74 101.21C301 103.83 293.52 110.19 293.52 114.68C293.52 119.17 301.59 138.25 304.74 144.99C307.88 151.72 321.9 173.05 314.27 173.05C306.64 173.05 294.26 180.16 289.03 183.72L293.52 209.54C292.21 219.08 288.35 238.16 283.42 238.16C278.48 238.16 258.73 241.19 258.73 244.34C258.73 247.48 254.25 255.34 254.25 258.93C254.25 262.52 240.11 276.89 235.17 276.89C230.24 276.89 214.79 276.89 207.68 276.89C204.88 283.06 198.26 295.41 194.22 295.41C190.18 295.41 172 306.64 168.41 306.64C164.82 306.64 148.59 295.79 140.92 290.36C131.95 290.36 112.43 290.36 106.14 290.36C99.86 290.36 93.69 293.95 88.75 290.36C83.82 286.77 82.58 272.77 82.58 266.23C74.73 266.23 58.01 266.23 53.97 266.23C49.93 266.23 39.95 251.63 35.46 244.34L35.46 233.67C36.95 231.24 39.05 225.59 35.46 222.45C31.87 219.3 21.55 215.37 17.51 209.54C13.47 203.7 6.29 204.37 6.29 190.45C6.29 176.53 2.25 170.58 6.29 165.2C10.33 159.81 15.45 149.48 17.51 144.99C11.33 140.69 0.45 132.08 6.29 132.08L6.29 126.47C11.9 121.42 23.12 109.29 23.12 101.21Z" stroke="#1D0D31" stroke-opacity="1.000000" stroke-width="1.000000"/>
	</g>
</svg>
