<svg width="267.856689" height="265.018494" viewBox="0 0 267.857 265.018" fill="none" xmlns="http://www.w3.org/2000/svg" xmlns:xlink="http://www.w3.org/1999/xlink">
	<desc>
			Created with Pixso.
	</desc>
	<defs>
		<filter id="filter_23_1407_dd" x="0.000000" y="0.000000" width="267.856689" height="265.018494" filterUnits="userSpaceOnUse" color-interpolation-filters="sRGB">
			<feFlood flood-opacity="0" result="BackgroundImageFix"/>
			<feColorMatrix in="SourceAlpha" type="matrix" values="0 0 0 0 0 0 0 0 0 0 0 0 0 0 0 0 0 0 127 0" result="hardAlpha"/>
			<feOffset dx="0" dy="1"/>
			<feGaussianBlur stdDeviation="1.33333"/>
			<feComposite in2="hardAlpha" operator="out" k2="-1" k3="1"/>
			<feColorMatrix type="matrix" values="0 0 0 0 0.75686 0 0 0 0 0 0 0 0 0 1 0 0 0 1 0"/>
			<feBlend mode="normal" in2="BackgroundImageFix" result="effect_dropShadow_1"/>
			<feBlend mode="normal" in="SourceGraphic" in2="effect_dropShadow_1" result="shape"/>
		</filter>
	</defs>
	<g filter="url(#filter_23_1407_dd)">
		<path id="Vector 5" d="M34.22 76.39L54.27 49.62L54.27 29.53C58.97 27.05 69.86 22.09 75.8 22.09C81.74 22.09 109.95 25.66 109.95 22.09C109.95 18.52 121.34 8.21 127.03 3.5L149.31 3.5L191.63 15.4L212.42 15.4L203.51 29.53L220.59 39.2L243.61 61.52L243.61 76.39C245.09 79.62 248.95 87.26 252.52 92.02C256.08 96.78 260.44 105.41 262.17 109.13L252.52 122.52C255.73 130.2 262.17 146.32 262.17 149.3C262.17 152.27 265.14 175.48 262.17 176.07C259.2 176.67 248.56 182.27 243.61 185C240.64 190.7 234.7 203 234.7 206.57L203.51 216.99L191.63 243.02L165.64 233.35L138.17 248.97C134.7 253.69 125.99 262.22 118.86 258.64C111.74 255.07 90.65 240.05 90.65 237.07C90.65 234.1 81.74 222.94 75.8 222.94C69.86 222.94 53.37 222.34 49.81 216.99C46.25 211.63 29.02 199.43 29.02 194.67C29.02 189.91 29.02 165.96 29.02 161.2C29.02 156.44 20.11 153.46 17.14 149.3C14.17 145.13 4.52 138.88 4.52 135.91C4.52 132.93 3.77 117.16 9.71 113.59C15.65 110.02 21.6 103.17 21.6 100.2C21.6 97.22 18.63 83.09 17.14 76.39L34.22 76.39Z" stroke="#C100FF" stroke-opacity="1.000000" stroke-width="1.000000"/>
	</g>
</svg>
