<svg width="28.000000" height="28.000000" viewBox="0 0 28 28" fill="none" xmlns="http://www.w3.org/2000/svg" xmlns:xlink="http://www.w3.org/1999/xlink">
	<desc>
			Created with Pixso.
	</desc>
	<defs>
		<clipPath id="clip27_2005">
			<rect id="email-svgrepo-com" width="28.000000" height="28.000000" fill="white" fill-opacity="0"/>
		</clipPath>
	</defs>
	<g clip-path="url(#clip27_2005)">
		<path id="path" d="M19.33 14C19.33 16.94 16.94 19.33 14 19.33C11.05 19.33 8.66 16.94 8.66 14C8.66 11.05 11.05 8.66 14 8.66C16.94 8.66 19.33 11.05 19.33 14ZM19.31 25.02L19.33 25C19.89 25 20.33 25.43 20.33 26C20.33 26.56 19.89 27 19.33 27L19.31 26.98L19.31 25.02Z" fill="#000000" fill-opacity="0" fill-rule="nonzero"/>
		<path id="path" d="M14 19.33C11.05 19.33 8.66 16.94 8.66 14C8.66 11.05 11.05 8.66 14 8.66C16.94 8.66 19.33 11.05 19.33 14C19.33 16.94 16.94 19.33 14 19.33ZM19.33 14L19.33 16C19.33 17.84 20.82 19.33 22.66 19.33C24.5 19.33 26 17.84 26 16L26 14C26 7.37 20.62 2 14 2C7.37 2 2 7.37 2 14C2 20.62 7.37 26 14 26L19.33 26" stroke="#FFFFFF" stroke-opacity="1.000000" stroke-width="2.000000" stroke-linejoin="round" stroke-linecap="round"/>
	</g>
</svg>
