<svg width="28.000000" height="28.000000" viewBox="0 0 28 28" fill="none" xmlns="http://www.w3.org/2000/svg" xmlns:xlink="http://www.w3.org/1999/xlink">
	<desc>
			Created with Pixso.
	</desc>
	<defs>
		<clipPath id="clip27_1568">
			<rect id="location-pin-alt-1-svgrepo-com" width="28.000000" height="28.000000" fill="white" fill-opacity="0"/>
		</clipPath>
	</defs>
	<g clip-path="url(#clip27_1568)">
		<path id="path" d="M13.97 26.54C18.74 21.63 23.52 17.23 23.52 11.8C23.52 6.37 19.24 1.97 13.97 1.97C8.69 1.97 4.41 6.37 4.41 11.8C4.41 17.23 9.19 21.63 13.97 26.54Z" fill="#000000" fill-opacity="0" fill-rule="nonzero"/>
		<path id="path" d="M23.52 11.8C23.52 6.37 19.24 1.97 13.97 1.97C8.69 1.97 4.41 6.37 4.41 11.8C4.41 17.23 9.19 21.63 13.97 26.54C18.74 21.63 23.52 17.23 23.52 11.8Z" stroke="#000000" stroke-opacity="1.000000" stroke-width="2.000000" stroke-linejoin="round"/>
		<path id="path" d="M13.97 14.26C15.47 14.26 16.7 13.03 16.7 11.53C16.7 10.02 15.47 8.8 13.97 8.8C12.46 8.8 11.24 10.02 11.24 11.53C11.24 13.03 12.46 14.26 13.97 14.26Z" fill="#000000" fill-opacity="0" fill-rule="nonzero"/>
		<path id="path" d="M16.7 11.53C16.7 10.02 15.47 8.8 13.97 8.8C12.46 8.8 11.24 10.02 11.24 11.53C11.24 13.03 12.46 14.26 13.97 14.26C15.47 14.26 16.7 13.03 16.7 11.53Z" stroke="#000000" stroke-opacity="1.000000" stroke-width="2.000000" stroke-linejoin="round"/>
	</g>
</svg>
