<svg width="25.000000" height="25.000000" viewBox="0 0 25 25" fill="none" xmlns="http://www.w3.org/2000/svg" xmlns:xlink="http://www.w3.org/1999/xlink">
	<desc>
			Created with Pixso.
	</desc>
	<defs>
		<clipPath id="clip28_110">
			<rect id="phone-svgrepo-com" width="25.000000" height="25.000000" fill="white" fill-opacity="0"/>
		</clipPath>
	</defs>
	<g clip-path="url(#clip28_110)">
		<path id="path" d="M1.3 4.4C1.3 15.02 9.91 23.62 20.52 23.62C21 23.62 21.48 23.6 21.95 23.57C22.49 23.53 22.75 23.51 23 23.37C23.2 23.25 23.4 23.04 23.5 22.83C23.62 22.58 23.62 22.28 23.62 21.68L23.62 18.19C23.62 17.69 23.62 17.44 23.54 17.23C23.47 17.04 23.35 16.87 23.2 16.73C23.02 16.58 22.79 16.5 22.32 16.33L18.34 14.88C17.79 14.68 17.52 14.58 17.26 14.6C17.03 14.61 16.81 14.69 16.62 14.82C16.41 14.97 16.26 15.22 15.96 15.72L14.94 17.42C11.65 15.93 8.99 13.27 7.5 9.98L9.2 8.96C9.7 8.66 9.95 8.51 10.1 8.3C10.23 8.11 10.31 7.89 10.32 7.66C10.34 7.4 10.24 7.13 10.04 6.58L8.6 2.61C8.42 2.14 8.34 1.9 8.19 1.73C8.05 1.57 7.89 1.46 7.7 1.38C7.48 1.3 7.23 1.3 6.73 1.3L3.24 1.3C2.64 1.3 2.34 1.3 2.09 1.42C1.88 1.53 1.67 1.72 1.55 1.92C1.41 2.17 1.39 2.44 1.35 2.98C1.32 3.45 1.3 3.92 1.3 4.4Z" fill="#000000" fill-opacity="0" fill-rule="nonzero"/>
		<path id="path" d="M20.52 23.62C21 23.62 21.48 23.6 21.95 23.57C22.49 23.53 22.75 23.51 23 23.37C23.2 23.25 23.4 23.04 23.5 22.83C23.62 22.58 23.62 22.28 23.62 21.68L23.62 18.19C23.62 17.69 23.62 17.44 23.54 17.23C23.47 17.04 23.35 16.87 23.2 16.73C23.02 16.58 22.79 16.5 22.32 16.33L18.34 14.88C17.79 14.68 17.52 14.58 17.26 14.6C17.03 14.61 16.81 14.69 16.62 14.82C16.41 14.97 16.26 15.22 15.96 15.72L14.94 17.42C11.65 15.93 8.99 13.27 7.5 9.98L9.2 8.96C9.7 8.66 9.95 8.51 10.1 8.3C10.23 8.11 10.31 7.89 10.32 7.66C10.34 7.4 10.24 7.13 10.04 6.58L8.6 2.61C8.42 2.14 8.34 1.9 8.19 1.73C8.05 1.57 7.89 1.46 7.7 1.38C7.48 1.3 7.23 1.3 6.73 1.3L3.24 1.3C2.64 1.3 2.34 1.3 2.09 1.42C1.88 1.53 1.67 1.72 1.55 1.92C1.41 2.17 1.39 2.44 1.35 2.98C1.32 3.45 1.3 3.92 1.3 4.4C1.3 15.02 9.91 23.62 20.52 23.62Z" stroke="#282826" stroke-opacity="1.000000" stroke-width="2.000000" stroke-linejoin="round"/>
	</g>
</svg>
