<svg width="28.000000" height="28.000000" viewBox="0 0 28 28" fill="none" xmlns="http://www.w3.org/2000/svg" xmlns:xlink="http://www.w3.org/1999/xlink">
	<desc>
			Created with Pixso.
	</desc>
	<defs>
		<clipPath id="clip27_1561">
			<rect id="phone-svgrepo-com" width="28.000000" height="28.000000" fill="white" fill-opacity="0"/>
		</clipPath>
	</defs>
	<g clip-path="url(#clip27_1561)">
		<path id="path" d="M1.46 4.94C1.46 16.87 11.12 26.53 23.05 26.53C23.59 26.53 24.12 26.51 24.65 26.48C25.26 26.43 25.56 26.41 25.84 26.25C26.06 26.12 26.28 25.88 26.39 25.65C26.53 25.36 26.53 25.03 26.53 24.36L26.53 20.43C26.53 19.87 26.53 19.59 26.44 19.35C26.36 19.13 26.23 18.94 26.05 18.8C25.86 18.63 25.59 18.53 25.07 18.34L20.6 16.71C19.98 16.49 19.68 16.38 19.38 16.4C19.13 16.41 18.88 16.5 18.67 16.65C18.43 16.82 18.26 17.1 17.93 17.66L16.78 19.57C13.09 17.9 10.1 14.9 8.42 11.21L10.33 10.06C10.89 9.73 11.17 9.56 11.34 9.32C11.49 9.11 11.58 8.86 11.59 8.61C11.61 8.31 11.5 8.01 11.28 7.39L9.65 2.92C9.46 2.4 9.36 2.13 9.19 1.94C9.05 1.76 8.86 1.63 8.64 1.55C8.4 1.46 8.12 1.46 7.56 1.46L3.63 1.46C2.96 1.46 2.63 1.46 2.34 1.6C2.11 1.71 1.87 1.93 1.74 2.15C1.58 2.43 1.56 2.73 1.52 3.34C1.48 3.87 1.46 4.4 1.46 4.94Z" fill="#000000" fill-opacity="0" fill-rule="nonzero"/>
		<path id="path" d="M23.05 26.53C23.59 26.53 24.12 26.51 24.65 26.48C25.26 26.43 25.56 26.41 25.84 26.25C26.06 26.12 26.28 25.88 26.39 25.65C26.53 25.36 26.53 25.03 26.53 24.36L26.53 20.43C26.53 19.87 26.53 19.59 26.44 19.35C26.36 19.13 26.23 18.94 26.05 18.8C25.86 18.63 25.59 18.53 25.07 18.34L20.6 16.71C19.98 16.49 19.68 16.38 19.38 16.4C19.13 16.41 18.88 16.5 18.67 16.65C18.43 16.82 18.26 17.1 17.93 17.66L16.78 19.57C13.09 17.9 10.1 14.9 8.42 11.21L10.33 10.06C10.89 9.73 11.17 9.56 11.34 9.32C11.49 9.11 11.58 8.86 11.59 8.61C11.61 8.31 11.5 8.01 11.28 7.39L9.65 2.92C9.46 2.4 9.36 2.13 9.19 1.94C9.05 1.76 8.86 1.63 8.64 1.55C8.4 1.46 8.12 1.46 7.56 1.46L3.63 1.46C2.96 1.46 2.63 1.46 2.34 1.6C2.11 1.71 1.87 1.93 1.74 2.15C1.58 2.43 1.56 2.73 1.52 3.34C1.48 3.87 1.46 4.4 1.46 4.94C1.46 16.87 11.12 26.53 23.05 26.53Z" stroke="#000000" stroke-opacity="1.000000" stroke-width="2.000000" stroke-linejoin="round"/>
	</g>
</svg>
