<svg width="53.046631" height="103.099670" viewBox="0 0 53.0466 103.1" fill="none" xmlns="http://www.w3.org/2000/svg" xmlns:xlink="http://www.w3.org/1999/xlink">
	<desc>
			Created with Pixso.
	</desc>
	<defs/>
	<path id="Vector 2" d="M0.09 64.09C15.27 64.09 17.77 90.06 17.12 103.05" stroke="#FFFFFF" stroke-opacity="1.000000" stroke-width="2.000000"/>
	<path id="Vector 2" d="M33.52 63.92C18.9 63.92 16.49 89.89 17.12 102.87" stroke="#000000" stroke-opacity="1.000000" stroke-width="2.000000"/>
	<path id="Vector 2" d="M0 63.92C7.96 63.92 11.66 69.74 14.02 78.41C16.15 86.27 17.34 96.7 17.03 102.87" stroke="#000000" stroke-opacity="1.000000" stroke-width="2.000000"/>
	<path id="Vector 2" d="M0.18 64.09C4.3 64.09 7.73 62.36 9.74 60.5C11.5 58.87 12.01 57.4 13.07 53.31C15.08 45.5 16.87 31.26 16.58 25.14" stroke="#000000" stroke-opacity="1.000000" stroke-width="2.000000"/>
	<path id="Vector 2" d="M33.6 63.75C29.48 63.75 25.79 61.54 23.41 59.79C21.17 58.16 20.39 55.97 19.25 51.78C17.11 43.93 16.26 30.96 16.56 24.79" stroke="#000000" stroke-opacity="1.000000" stroke-width="2.000000"/>
	<path id="Vector 2" d="M36.17 60C43.81 60 45.07 73.14 44.74 79.71" stroke="#FFFFFF" stroke-opacity="1.000000" stroke-width="2.000000"/>
	<path id="Vector 2" d="M53 59.91C45.64 59.91 44.43 73.05 44.74 79.62" stroke="#000000" stroke-opacity="1.000000" stroke-width="2.000000"/>
	<path id="Vector 2" d="M36.12 59.91C40.13 59.91 41.99 62.86 43.18 67.25C44.26 71.22 44.85 76.5 44.7 79.62" stroke="#000000" stroke-opacity="1.000000" stroke-width="2.000000"/>
	<path id="Vector 2" d="M36.21 60C38.29 60 40.02 59.13 41.03 58.18C41.91 57.36 42.17 56.61 42.7 54.55C43.72 50.59 44.62 43.39 44.47 40.29" stroke="#000000" stroke-opacity="1.000000" stroke-width="2.000000"/>
	<path id="Vector 2" d="M53.04 59.83C50.97 59.83 49.11 58.71 47.91 57.83C46.78 57 46.39 55.89 45.81 53.77C44.74 49.8 44.31 43.24 44.46 40.11" stroke="#000000" stroke-opacity="1.000000" stroke-width="2.000000"/>
	<path id="Vector 2" d="M25.25 25.14C34.94 25.14 36.53 41.72 36.12 50.01" stroke="#FFFFFF" stroke-opacity="1.000000" stroke-width="2.000000"/>
	<path id="Vector 2" d="M46.58 25.03C37.25 25.03 35.72 41.61 36.12 49.9" stroke="#000000" stroke-opacity="1.000000" stroke-width="2.000000"/>
	<path id="Vector 2" d="M25.19 25.03C30.27 25.03 32.63 28.75 34.14 34.29C35.5 39.3 36.26 45.96 36.06 49.9" stroke="#000000" stroke-opacity="1.000000" stroke-width="2.000000"/>
	<path id="Vector 2" d="M25.31 25.14C27.93 25.14 30.12 24.04 31.41 22.85C32.53 21.8 32.86 20.87 33.53 18.26C34.82 13.27 35.96 4.17 35.77 0.26" stroke="#000000" stroke-opacity="1.000000" stroke-width="2.000000"/>
	<path id="Vector 2" d="M46.64 24.92C44.01 24.92 41.65 23.51 40.13 22.39C38.71 21.35 38.2 19.96 37.48 17.28C36.11 12.26 35.57 3.98 35.76 0.04" stroke="#000000" stroke-opacity="1.000000" stroke-width="2.000000"/>
</svg>
