<svg width="27.000000" height="27.422974" viewBox="0 0 27 27.423" fill="none" xmlns="http://www.w3.org/2000/svg" xmlns:xlink="http://www.w3.org/1999/xlink">
	<desc>
			Created with Pixso.
	</desc>
	<defs>
		<clipPath id="clip28_16">
			<rect id="telegram-svgrepo-com" width="27.000000" height="27.422977" fill="white" fill-opacity="0"/>
		</clipPath>
	</defs>
	<g clip-path="url(#clip28_16)">
		<path id="path" d="M18.66 8.6C18.84 8.6 19.02 8.65 19.15 8.75C19.25 8.84 19.31 8.96 19.33 9.09C19.35 9.2 19.36 9.32 19.36 9.44C19.36 9.5 19.35 9.55 19.35 9.61C19.16 11.64 18.34 16.56 17.92 18.83C17.74 19.79 17.39 20.11 17.06 20.14C16.32 20.21 15.77 19.65 15.06 19.18C13.94 18.44 13.31 17.98 12.24 17.25C10.99 16.42 11.8 15.96 12.51 15.21C12.69 15.01 15.93 12.03 15.99 11.76C15.99 11.69 15.97 11.58 15.93 11.53C15.89 11.5 15.83 11.48 15.77 11.48C15.74 11.48 15.7 11.49 15.67 11.5C15.55 11.53 13.78 12.72 10.34 15.08C9.96 15.38 9.49 15.57 8.97 15.59C8.24 15.5 7.57 15.34 6.94 15.1C6.15 14.84 5.58 14.72 5.64 14.28C5.67 14.05 5.98 13.81 6.58 13.57C10.26 11.94 12.72 10.87 13.95 10.35C15.3 9.62 16.87 9.01 18.53 8.62L18.66 8.6ZM13.44 0.87C6.43 0.89 0.76 6.66 0.76 13.78C0.76 20.91 6.45 26.69 13.47 26.69C20.48 26.69 26.17 20.91 26.17 13.78C26.17 6.66 20.44 0.89 13.44 0.87Z" fill="#282826" fill-opacity="1.000000" fill-rule="nonzero"/>
	</g>
</svg>
