<svg width="40.000000" height="40.626465" viewBox="0 0 40 40.6265" fill="none" xmlns="http://www.w3.org/2000/svg" xmlns:xlink="http://www.w3.org/1999/xlink">
	<desc>
			Created with Pixso.
	</desc>
	<defs>
		<clipPath id="clip27_1990">
			<rect id="telegram-svgrepo-com" width="40.000000" height="40.626633" fill="white" fill-opacity="0"/>
		</clipPath>
	</defs>
	<g clip-path="url(#clip27_1990)">
		<path id="path" d="M27.65 12.74C27.91 12.74 28.18 12.82 28.38 12.97C28.52 13.09 28.62 13.27 28.64 13.48C28.66 13.63 28.68 13.81 28.68 13.99C28.68 14.08 28.68 14.16 28.67 14.24C28.39 17.25 27.17 24.53 26.55 27.9C26.29 29.32 25.77 29.8 25.27 29.84C24.18 29.95 23.36 29.12 22.31 28.41C20.66 27.32 19.73 26.63 18.13 25.56C16.28 24.33 17.48 23.65 18.53 22.54C18.81 22.24 23.6 17.82 23.69 17.42C23.69 17.32 23.66 17.15 23.6 17.08C23.54 17.04 23.46 17.02 23.37 17.02C23.31 17.02 23.26 17.03 23.21 17.05C23.05 17.08 20.42 18.85 15.32 22.34C14.76 22.79 14.06 23.07 13.29 23.1C12.21 22.97 11.22 22.73 10.29 22.38C9.11 21.99 8.27 21.81 8.35 21.16C8.4 20.81 8.86 20.46 9.75 20.11C15.2 17.69 18.84 16.1 20.66 15.33C22.67 14.25 25 13.36 27.45 12.78L27.65 12.74ZM19.91 1.3C9.53 1.32 1.13 9.87 1.13 20.42C1.13 30.98 9.55 39.54 19.95 39.54C30.35 39.54 38.78 30.98 38.78 20.42C38.78 9.87 30.28 1.32 19.91 1.3Z" fill="#FFFFFF" fill-opacity="1.000000" fill-rule="nonzero"/>
	</g>
</svg>
