<svg width="40.000000" height="40.626465" viewBox="0 0 40 40.6265" fill="none" xmlns="http://www.w3.org/2000/svg" xmlns:xlink="http://www.w3.org/1999/xlink">
	<desc>
			Created with Pixso.
	</desc>
	<defs>
		<clipPath id="clip27_1989">
			<rect id="vk-svgrepo-com" width="40.000000" height="40.626633" fill="white" fill-opacity="0"/>
		</clipPath>
	</defs>
	<g clip-path="url(#clip27_1989)">
		<path id="path" d="M25.82 1.07L14.2 1.07C3.58 1.07 1.06 3.64 1.06 14.4L1.06 26.2C1.06 36.98 3.56 39.54 14.18 39.54L25.8 39.54C36.41 39.54 38.93 37 38.93 26.22L38.93 14.42C38.93 3.64 36.43 1.07 25.82 1.07ZM31.63 28.52L28.87 28.52C27.83 28.52 27.51 27.66 25.64 25.76C24 24.16 23.31 23.96 22.9 23.96C22.32 23.96 22.17 24.12 22.17 24.92L22.17 27.44C22.17 28.12 21.95 28.52 20.19 28.52C16.52 28.27 13.72 26.56 11.77 23.39C9.59 20.64 8.14 17.54 7.41 14.1C7.41 13.68 7.57 13.29 8.36 13.29L11.12 13.29C11.83 13.29 12.08 13.62 12.36 14.36C13.7 18.36 15.99 21.85 16.92 21.85C17.27 21.85 17.43 21.69 17.43 20.79L17.43 16.66C17.31 14.78 16.33 14.62 16.33 13.94C16.36 13.49 16.59 13.28 17.04 13.29L21.38 13.29C21.97 13.29 22.17 13.6 22.17 14.32L22.17 19.89C22.17 20.49 22.42 20.69 22.6 20.69C22.95 20.69 23.23 20.49 23.88 19.83C25.29 18.09 26.42 16.18 27.28 14.1C27.48 13.52 27.88 13.25 28.48 13.29L31.24 13.29C32.07 13.29 32.25 13.72 32.07 14.32C31.06 16.61 29.82 18.77 28.36 20.79C28.06 21.25 27.95 21.49 28.36 22.03C28.64 22.45 29.6 23.27 30.25 24.06C31.21 25.02 31.98 26.12 32.58 27.34C32.82 28.12 32.42 28.52 31.63 28.52Z" fill="#FFFFFF" fill-opacity="1.000000" fill-rule="nonzero"/>
	</g>
</svg>
