<svg width="27.000000" height="27.422974" viewBox="0 0 27 27.423" fill="none" xmlns="http://www.w3.org/2000/svg" xmlns:xlink="http://www.w3.org/1999/xlink">
	<desc>
			Created with Pixso.
	</desc>
	<defs>
		<clipPath id="clip28_14">
			<rect id="vk-svgrepo-com" width="27.000000" height="27.422977" fill="white" fill-opacity="0"/>
		</clipPath>
	</defs>
	<g clip-path="url(#clip28_14)">
		<path id="path" d="M17.42 0.72L9.58 0.72C2.42 0.72 0.71 2.45 0.71 9.72L0.71 17.68C0.71 24.96 2.4 26.69 9.57 26.69L17.41 26.69C24.57 26.69 26.28 24.97 26.28 17.7L26.28 9.73C26.28 2.45 24.59 0.72 17.42 0.72ZM21.35 19.25L19.49 19.25C18.78 19.25 18.57 18.67 17.3 17.39C16.2 16.3 15.73 16.17 15.45 16.17C15.07 16.17 14.96 16.28 14.96 16.82L14.96 18.52C14.96 18.98 14.81 19.25 13.63 19.25C11.15 19.08 9.26 17.93 7.94 15.79C6.47 13.93 5.49 11.84 5 9.51C5 9.23 5.11 8.97 5.64 8.97L7.5 8.97C7.98 8.97 8.15 9.19 8.34 9.69C9.25 12.39 10.79 14.75 11.42 14.75C11.66 14.75 11.76 14.64 11.76 14.03L11.76 11.24C11.68 9.97 11.02 9.87 11.02 9.41C11.04 9.1 11.2 8.96 11.5 8.97L14.43 8.97C14.83 8.97 14.96 9.18 14.96 9.66L14.96 13.42C14.96 13.83 15.13 13.96 15.25 13.96C15.49 13.96 15.68 13.83 16.12 13.38C17.07 12.21 17.83 10.92 18.41 9.51C18.54 9.12 18.82 8.94 19.22 8.97L21.09 8.97C21.64 8.97 21.76 9.26 21.64 9.66C20.96 11.21 20.13 12.67 19.14 14.03C18.94 14.34 18.86 14.5 19.14 14.87C19.33 15.15 19.98 15.71 20.42 16.24C21.06 16.89 21.59 17.63 21.99 18.45C22.15 18.98 21.88 19.25 21.35 19.25Z" fill="#282826" fill-opacity="1.000000" fill-rule="nonzero"/>
	</g>
</svg>
