<svg width="27.000000" height="27.422974" viewBox="0 0 27 27.423" fill="none" xmlns="http://www.w3.org/2000/svg" xmlns:xlink="http://www.w3.org/1999/xlink">
	<desc>
			Created with Pixso.
	</desc>
	<defs>
		<clipPath id="clip28_18">
			<rect id="whatsapp-128-svgrepo-com" width="27.000000" height="27.422977" fill="white" fill-opacity="0"/>
		</clipPath>
	</defs>
	<g clip-path="url(#clip28_18)">
		<path id="whatsapp-[#128]" d="M21.35 19.36C21.03 20.29 19.73 21.07 18.7 21.29C18 21.44 17.08 21.57 13.97 20.26C10.49 18.79 5.65 13.57 5.65 10.1C5.65 8.33 6.66 6.27 8.41 6.27C9.26 6.27 9.44 6.28 9.72 6.96C10.05 7.76 10.84 9.72 10.94 9.93C11.33 10.75 10.54 11.24 9.97 11.96C9.79 12.17 9.58 12.41 9.81 12.81C10.04 13.21 10.83 14.52 12 15.58C13.51 16.94 14.73 17.37 15.16 17.56C15.49 17.7 15.88 17.66 16.12 17.41C16.42 17.08 16.79 16.53 17.17 15.99C17.44 15.6 17.78 15.55 18.14 15.69C18.38 15.77 21.45 17.22 21.58 17.46C21.68 17.62 21.68 18.42 21.35 19.36ZM13.5 0C6.06 0 0 6.15 0 13.71C0 16.7 0.95 19.49 2.57 21.74L0.88 26.84L6.07 25.15C8.21 26.59 10.75 27.42 13.5 27.42C20.94 27.42 27 21.27 27 13.71C27 6.15 20.94 0 13.5 0Z" fill="#282826" fill-opacity="1.000000" fill-rule="evenodd"/>
		<path id="whatsapp-[#128]" d="M18.7 21.29C18 21.44 17.08 21.57 13.97 20.26C10.49 18.79 5.65 13.57 5.65 10.1C5.65 8.33 6.66 6.27 8.41 6.27C9.26 6.27 9.44 6.28 9.72 6.96C10.05 7.76 10.84 9.72 10.94 9.93C11.33 10.75 10.54 11.24 9.97 11.96C9.79 12.17 9.58 12.41 9.81 12.81C10.04 13.21 10.83 14.52 12 15.58C13.51 16.94 14.73 17.37 15.16 17.56C15.49 17.7 15.88 17.66 16.12 17.41C16.42 17.08 16.79 16.53 17.17 15.99C17.44 15.6 17.78 15.55 18.14 15.69C18.38 15.77 21.45 17.22 21.58 17.46C21.68 17.62 21.68 18.42 21.35 19.36C21.03 20.29 19.73 21.07 18.7 21.29ZM0 13.71C0 16.7 0.95 19.49 2.57 21.74L0.88 26.84L6.07 25.15C8.21 26.59 10.75 27.42 13.5 27.42C20.94 27.42 27 21.27 27 13.71C27 6.15 20.94 0 13.5 0C6.06 0 0 6.15 0 13.71Z" stroke="#000000" stroke-opacity="0" stroke-width="40.000000"/>
	</g>
</svg>
