<svg width="40.000000" height="40.626465" viewBox="0 0 40 40.6265" fill="none" xmlns="http://www.w3.org/2000/svg" xmlns:xlink="http://www.w3.org/1999/xlink">
	<desc>
			Created with Pixso.
	</desc>
	<defs>
		<clipPath id="clip27_1991">
			<rect id="whatsapp-128-svgrepo-com" width="40.000000" height="40.626633" fill="white" fill-opacity="0"/>
		</clipPath>
	</defs>
	<g clip-path="url(#clip27_1991)">
		<path id="whatsapp-[#128]" d="M31.64 28.68C31.15 30.07 29.24 31.21 27.71 31.55C26.66 31.77 25.3 31.95 20.71 30.02C15.54 27.84 8.38 20.11 8.38 14.96C8.38 12.34 9.86 9.28 12.47 9.28C13.72 9.28 13.99 9.31 14.4 10.31C14.89 11.5 16.06 14.41 16.2 14.71C16.78 15.93 15.61 16.65 14.77 17.72C14.5 18.04 14.19 18.39 14.54 18.98C14.88 19.57 16.05 21.52 17.78 23.08C20.01 25.1 21.82 25.74 22.47 26.02C22.95 26.22 23.53 26.17 23.88 25.79C24.33 25.3 24.88 24.49 25.44 23.69C25.84 23.11 26.35 23.04 26.88 23.25C27.24 23.37 31.79 25.52 31.98 25.86C32.12 26.11 32.12 27.29 31.64 28.68ZM20 0C8.97 0 0 9.11 0 20.31C0 24.75 1.4 28.87 3.8 32.21L1.31 39.76L9 37.27C12.16 39.39 15.93 40.62 20 40.62C31.03 40.62 40 31.51 40 20.31C40 9.11 31.03 0 20 0Z" fill="#FFFFFF" fill-opacity="1.000000" fill-rule="evenodd"/>
		<path id="whatsapp-[#128]" d="M27.71 31.55C26.66 31.77 25.3 31.95 20.71 30.02C15.54 27.84 8.38 20.11 8.38 14.96C8.38 12.34 9.86 9.28 12.47 9.28C13.72 9.28 13.99 9.31 14.4 10.31C14.89 11.5 16.06 14.41 16.2 14.71C16.78 15.93 15.61 16.65 14.77 17.72C14.5 18.04 14.19 18.39 14.54 18.98C14.88 19.57 16.05 21.52 17.78 23.08C20.01 25.1 21.82 25.74 22.47 26.02C22.95 26.22 23.53 26.17 23.88 25.79C24.33 25.3 24.88 24.49 25.44 23.69C25.84 23.11 26.35 23.04 26.88 23.25C27.24 23.37 31.79 25.52 31.98 25.86C32.12 26.11 32.12 27.29 31.64 28.68C31.15 30.07 29.24 31.21 27.71 31.55ZM0 20.31C0 24.75 1.4 28.87 3.8 32.21L1.31 39.76L9 37.27C12.16 39.39 15.93 40.62 20 40.62C31.03 40.62 40 31.51 40 20.31C40 9.11 31.03 0 20 0C8.97 0 0 9.11 0 20.31Z" stroke="#000000" stroke-opacity="0" stroke-width="40.000000"/>
	</g>
</svg>
