<svg width="83.690430" height="196.058533" viewBox="0 0 83.6904 196.059" fill="none" xmlns="http://www.w3.org/2000/svg" xmlns:xlink="http://www.w3.org/1999/xlink">
	<desc>
			Created with Pixso.
	</desc>
	<defs/>
	<path id="Vector 2" d="M0.23 98.45C38.04 98.45 44.26 163.5 42.65 196.03" stroke="#FFFFFF" stroke-opacity="1.000000" stroke-width="1.000000"/>
	<path id="Vector 2" d="M83.48 98.02C47.08 98.02 41.08 163.07 42.64 195.6" stroke="#000000" stroke-opacity="1.000000" stroke-width="1.000000"/>
	<path id="Vector 2" d="M0 98.02C19.84 98.02 29.04 112.6 34.92 134.33C40.24 154.01 43.18 180.15 42.42 195.6" stroke="#000000" stroke-opacity="1.000000" stroke-width="1.000000"/>
	<path id="Vector 2" d="M0.46 98.45C10.71 98.45 19.26 94.13 24.26 89.46C28.65 85.38 29.92 81.7 32.55 71.46C37.57 51.89 42.03 16.21 41.3 0.88" stroke="#000000" stroke-opacity="1.000000" stroke-width="1.000000"/>
	<path id="Vector 2" d="M83.69 97.59C73.43 97.59 64.25 92.05 58.3 87.69C52.74 83.61 50.78 78.12 47.94 67.62C42.62 47.95 40.5 15.47 41.26 0.02" stroke="#000000" stroke-opacity="1.000000" stroke-width="1.000000"/>
</svg>
