<svg width="42.141846" height="99.234619" viewBox="0 0 42.1418 99.2346" fill="none" xmlns="http://www.w3.org/2000/svg" xmlns:xlink="http://www.w3.org/1999/xlink">
	<desc>
			Created with Pixso.
	</desc>
	<defs/>
	<path id="Vector 2" d="M0.11 49.83C19.15 49.83 22.29 82.75 21.47 99.21" stroke="#FFFFFF" stroke-opacity="1.000000" stroke-width="1.000000"/>
	<path id="Vector 2" d="M42.03 49.61C23.7 49.61 20.69 82.53 21.47 98.99" stroke="#000000" stroke-opacity="1.000000" stroke-width="1.000000"/>
	<path id="Vector 2" d="M0 49.61C9.99 49.61 14.62 56.99 17.58 67.99C20.26 77.94 21.74 91.17 21.36 98.99" stroke="#000000" stroke-opacity="1.000000" stroke-width="1.000000"/>
	<path id="Vector 2" d="M0.23 49.83C5.39 49.83 9.69 47.64 12.22 45.28C14.42 43.21 15.07 41.35 16.39 36.17C18.92 26.27 21.16 8.21 20.79 0.45" stroke="#000000" stroke-opacity="1.000000" stroke-width="1.000000"/>
	<path id="Vector 2" d="M42.14 49.39C36.97 49.39 32.35 46.59 29.35 44.38C26.55 42.32 25.57 39.54 24.14 34.23C21.46 24.27 20.39 7.84 20.78 0.02" stroke="#000000" stroke-opacity="1.000000" stroke-width="1.000000"/>
</svg>
