<svg width="53.419434" height="125.211945" viewBox="0 0 53.4194 125.212" fill="none" xmlns="http://www.w3.org/2000/svg" xmlns:xlink="http://www.w3.org/1999/xlink">
	<desc>
			Created with Pixso.
	</desc>
	<defs/>
	<path id="Vector 2" d="M0.14 62.88C24.28 62.88 28.25 104.41 27.22 125.18" stroke="#FFFFFF" stroke-opacity="1.000000" stroke-width="1.000000"/>
	<path id="Vector 2" d="M53.28 62.6C30.05 62.6 26.22 104.14 27.21 124.91" stroke="#000000" stroke-opacity="1.000000" stroke-width="1.000000"/>
	<path id="Vector 2" d="M0 62.6C12.66 62.6 18.54 71.91 22.29 85.79C25.68 98.35 27.56 115.04 27.07 124.91" stroke="#000000" stroke-opacity="1.000000" stroke-width="1.000000"/>
	<path id="Vector 2" d="M0.29 62.88C6.84 62.88 12.29 60.11 15.49 57.13C18.29 54.52 19.1 52.18 20.78 45.64C23.98 33.14 26.83 10.36 26.36 0.57" stroke="#000000" stroke-opacity="1.000000" stroke-width="1.000000"/>
	<path id="Vector 2" d="M53.41 62.33C46.87 62.33 41.01 58.79 37.21 56C33.66 53.4 32.41 49.89 30.6 43.19C27.2 30.62 25.85 9.89 26.34 0.02" stroke="#000000" stroke-opacity="1.000000" stroke-width="1.000000"/>
</svg>
