<svg width="70.000000" height="70.000000" viewBox="0 0 70 70" fill="none" xmlns="http://www.w3.org/2000/svg" xmlns:xlink="http://www.w3.org/1999/xlink">
	<desc>
			Created with Pixso.
	</desc>
	<defs>
		<clipPath id="clip58_1">
			<rect id="eye-svgrepo-com (1)" width="50.000000" height="50.000004" transform="translate(10.000000 10.000000)" fill="white" fill-opacity="0"/>
		</clipPath>
	</defs>
	<circle id="Oval 3" cx="35.000000" cy="35.000000" r="35.000000" fill="#FFFFFF" fill-opacity="1.000000"/>
	<g clip-path="url(#clip58_1)">
		<path id="path" d="M29.36 21.17L29.35 21.19C28.28 21.53 27.18 20.96 26.84 19.89C26.5 18.82 27.07 17.72 28.14 17.38L28.16 17.39L29.36 21.17ZM19.07 22.75L19.07 22.73C19.9 21.97 21.14 22.03 21.89 22.86C22.65 23.69 22.59 24.93 21.76 25.69L21.73 25.69L19.07 22.75Z" fill="#000000" fill-opacity="0" fill-rule="nonzero"/>
		<path id="path" d="M28.75 19.29C30.64 18.68 32.73 18.33 35 18.33C43.71 18.33 49.64 23.54 53.17 28.13C54.94 30.43 55.83 31.58 55.83 35C55.83 38.41 54.94 39.56 53.17 41.86C49.64 46.45 43.71 51.66 35 51.66C26.28 51.66 20.35 46.45 16.82 41.86C15.05 39.56 14.16 38.41 14.16 35C14.16 31.58 15.05 30.43 16.82 28.13C17.82 26.83 19.02 25.47 20.41 24.21" stroke="#000000" stroke-opacity="1.000000" stroke-width="4.000000" stroke-linecap="round"/>
		<path id="path" d="M41.25 35C41.25 38.45 38.45 41.25 35 41.25C31.54 41.25 28.75 38.45 28.75 35C28.75 31.54 31.54 28.75 35 28.75C38.45 28.75 41.25 31.54 41.25 35Z" fill="#000000" fill-opacity="0" fill-rule="nonzero"/>
		<path id="path" d="M35 41.25C31.54 41.25 28.75 38.45 28.75 35C28.75 31.54 31.54 28.75 35 28.75C38.45 28.75 41.25 31.54 41.25 35C41.25 38.45 38.45 41.25 35 41.25Z" stroke="#000000" stroke-opacity="1.000000" stroke-width="4.000000"/>
	</g>
</svg>
