<svg width="253.000000" height="71.096680" viewBox="0 0 253 71.0967" fill="none" xmlns="http://www.w3.org/2000/svg" xmlns:xlink="http://www.w3.org/1999/xlink">
	<desc>
			Created with Pixso.
	</desc>
	<defs/>
	<path id="KATANNA" d="M11.7 37.5L16.21 32.8L26.97 46L41.56 46L44.54 38.8L60.14 38.8L63.11 46L71.27 46L56.25 12.4L48.57 12.4L34.48 44.02L21.31 27.37L35.22 12.4L26.58 12.4L11.7 28.09L11.7 12.4L3.98 12.4L3.98 46L11.7 46L11.7 37.5ZM69.3 18.73L80.06 18.73L80.06 46L87.83 46L87.83 18.73L98.59 18.73L98.59 12.4L69.3 12.4L69.3 18.73ZM107.61 38.8L123.21 38.8L126.19 46L134.34 46L119.32 12.4L111.64 12.4L96.67 46L104.63 46L107.61 38.8ZM168.67 46L168.67 12.4L160.98 12.4L160.98 32.8L144.28 12.4L137.85 12.4L137.85 46L145.53 46L145.53 25.59L162.28 46L168.67 46ZM207.46 46L207.46 12.4L199.77 12.4L199.77 32.8L183.07 12.4L176.64 12.4L176.64 46L184.31 46L184.31 25.59L201.07 46L207.46 46ZM221.95 38.8L237.54 38.8L240.52 46L248.68 46L233.65 12.4L225.98 12.4L211 46L218.97 46L221.95 38.8ZM52.37 20.03L57.69 32.89L47.03 32.89L52.37 20.03ZM115.44 20.03L120.76 32.89L110.11 32.89L115.44 20.03ZM229.78 20.03L235.1 32.89L224.44 32.89L229.78 20.03Z" fill="#FFFFFF" fill-opacity="1.000000" fill-rule="evenodd"/>
	<path id="студия маникюра" d="M61.28 65.27Q62.37 65.81 63.85 65.81Q65 65.81 66.01 65.44Q66.2 65.37 66.38 65.29Q67.41 64.82 68.07 64.05Q68.17 63.94 68.25 63.82L67.24 63.04Q67.01 63.34 66.73 63.58Q66.33 63.94 65.81 64.17Q65.72 64.21 65.63 64.24Q64.84 64.55 63.92 64.55Q62.29 64.55 61.38 63.74Q61.35 63.72 61.33 63.69Q61.15 63.53 61.02 63.35Q60.42 62.55 60.42 61.3Q60.42 59.91 60.98 58.81Q60.99 58.78 61.01 58.76Q61.37 58.07 61.9 57.57Q62.24 57.24 62.65 57Q62.98 56.79 63.33 56.66Q64.11 56.36 65 56.36Q66.45 56.36 67.34 57.07Q67.76 57.41 68.06 57.92L69.25 57.21Q68.94 56.65 68.49 56.24Q68.11 55.89 67.62 55.65Q66.57 55.12 65.11 55.12Q63.71 55.12 62.53 55.63Q62.24 55.76 61.96 55.93Q61.28 56.32 60.74 56.86Q60.18 57.43 59.78 58.16Q59.67 58.36 59.57 58.56Q59 59.83 59 61.36Q59 62.66 59.55 63.65Q59.57 63.68 59.59 63.71Q59.79 64.05 60.04 64.34Q60.55 64.9 61.28 65.27ZM160.16 65.72L162.26 55.2L160.84 55.2L160.4 57.4Q160.16 56.82 159.76 56.38Q159.4 55.99 158.92 55.71Q157.9 55.12 156.4 55.12Q155.2 55.12 154.16 55.53Q153.74 55.69 153.35 55.93Q152.78 56.27 152.31 56.71Q151.67 57.33 151.22 58.16Q151.14 58.32 151.06 58.48Q150.46 59.78 150.46 61.36Q150.46 62.72 151.04 63.73Q151.31 64.2 151.68 64.57Q152.11 64.99 152.66 65.28Q153.7 65.81 155.04 65.81Q156.3 65.81 157.34 65.35Q157.87 65.12 158.33 64.78Q158.77 64.46 159.14 64.06L158.8 65.72L160.16 65.72ZM216.8 55.97Q215.61 55.12 213.79 55.12Q212.6 55.12 211.56 55.52Q211.35 55.6 211.15 55.7Q210.52 56 210 56.42Q209.51 56.82 209.11 57.33Q208.87 57.62 208.68 57.94Q208.19 58.76 207.95 59.73L205.63 59.73L206.54 55.2L205.12 55.2L203.02 65.72L204.44 65.72L205.38 61.04L207.78 61.04L207.78 61.37Q207.78 62.65 208.31 63.63Q208.33 63.67 208.35 63.71Q208.59 64.12 208.91 64.46Q209.37 64.94 209.99 65.27Q211.05 65.81 212.47 65.81Q213.75 65.81 214.85 65.36Q215.22 65.21 215.58 65Q216.22 64.62 216.73 64.1Q217.31 63.51 217.72 62.75Q217.82 62.56 217.91 62.37Q218.5 61.09 218.5 59.53Q218.5 58.09 217.84 57.07Q217.58 56.66 217.22 56.32Q217.02 56.13 216.8 55.97ZM230.11 55.66Q229.06 55.12 227.71 55.12Q226.45 55.12 225.41 55.56Q224.98 55.75 224.6 56.01Q224.06 56.37 223.61 56.88L223.95 55.2L222.59 55.2L219.74 69.6L221.16 69.6L222.35 63.51Q222.62 64.17 223.08 64.64Q223.41 64.98 223.83 65.23Q224.85 65.81 226.36 65.81Q227.64 65.81 228.74 65.35Q229.08 65.2 229.41 65.01Q229.98 64.67 230.45 64.22Q231.1 63.6 231.54 62.77Q231.64 62.58 231.73 62.39Q232.31 61.11 232.31 59.55Q232.31 58.2 231.73 57.2Q231.48 56.76 231.14 56.41Q230.7 55.96 230.11 55.66ZM244.04 65.72L246.14 55.2L244.72 55.2L244.28 57.4Q244.04 56.82 243.64 56.38Q243.28 55.99 242.8 55.71Q241.78 55.12 240.28 55.12Q239.08 55.12 238.04 55.53Q237.62 55.69 237.23 55.93Q236.66 56.27 236.19 56.71Q235.55 57.33 235.1 58.16Q235.02 58.32 234.94 58.48Q234.34 59.78 234.34 61.36Q234.34 62.72 234.92 63.73Q235.19 64.2 235.56 64.57Q235.99 64.99 236.54 65.28Q237.58 65.81 238.92 65.81Q240.18 65.81 241.22 65.35Q241.75 65.12 242.21 64.78Q242.65 64.46 243.02 64.06L242.68 65.72L244.04 65.72ZM75.54 56.46L79.53 56.46L79.79 55.2L70.39 55.2L70.15 56.46L74.11 56.46L72.27 65.72L73.69 65.72L75.54 56.46ZM83.07 67.08L90.75 55.2L89.29 55.2L83.55 64.16L81.37 55.2L79.93 55.2L82.56 65.66L81.81 66.78Q81.21 67.72 80.65 68.09Q80.44 68.24 80.21 68.33Q79.83 68.47 79.39 68.47Q78.67 68.47 78.11 68.17Q77.8 67.99 77.54 67.72L76.77 68.76Q77.15 69.2 77.83 69.45Q77.89 69.47 77.95 69.49Q78.58 69.7 79.27 69.7Q80.27 69.7 81.03 69.27Q81.15 69.2 81.27 69.12Q82.12 68.56 83.07 67.08ZM100.99 64.48L99.35 64.48L101.2 55.2L93.46 55.2L92.62 58.66Q91.94 61.34 91.21 62.88Q90.58 64.23 89.69 64.44Q89.56 64.47 89.44 64.48L88.89 64.48L88.15 68.25L89.5 68.25L89.99 65.72L99.42 65.72L98.91 68.25L100.26 68.25L100.99 64.48ZM107.02 55.2L105.6 55.2L103.48 65.72L104.85 65.72L113.5 57.21L111.75 65.72L113.21 65.72L115.31 55.2L113.96 55.2L105.31 63.69L107.02 55.2ZM125.36 65.72L127.44 55.2L122.97 55.2Q120.56 55.2 119.16 56.27Q118.57 56.72 118.23 57.3Q117.75 58.12 117.75 59.22Q117.75 60.25 118.25 60.93Q118.76 61.64 119.82 61.96L116.37 65.72L117.99 65.72L121.13 62.18L124.76 62.18L124.05 65.72L125.36 65.72ZM146.38 65.72L148.47 55.2L147.14 55.2L141.08 62.78L138.14 55.2L136.72 55.2L134.62 65.72L135.92 65.72L137.6 57.32L140.44 64.44L141.08 64.44L146.74 57.4L145.08 65.72L146.38 65.72ZM167.7 55.2L166.28 55.2L164.18 65.72L165.59 65.72L166.54 61.08L173.14 61.08L172.21 65.72L173.64 65.72L175.74 55.2L174.31 55.2L173.38 59.86L166.78 59.86L167.7 55.2ZM181.2 55.2L179.78 55.2L177.66 65.72L179.03 65.72L187.68 57.21L185.93 65.72L187.39 65.72L189.49 55.2L188.14 55.2L179.49 63.69L181.2 55.2ZM200.75 65.72L197.37 60.37L202.61 55.2L201.02 55.2L196.35 59.82L194.02 59.82L194.96 55.2L193.54 55.2L191.42 65.72L192.83 65.72L193.78 61.04L196.26 61.04L199.14 65.72L200.75 65.72ZM157.11 64.21Q156.3 64.55 155.33 64.55Q153.8 64.55 152.9 63.8Q152.84 63.75 152.78 63.69Q152.61 63.53 152.48 63.35Q151.88 62.55 151.88 61.3Q151.88 60.03 152.36 58.99Q152.41 58.88 152.47 58.77Q152.86 58.01 153.46 57.47Q153.75 57.2 154.09 57Q154.39 56.81 154.7 56.69Q155.5 56.36 156.44 56.36Q157.96 56.36 158.86 57.11Q158.92 57.16 158.99 57.22Q159.16 57.39 159.29 57.57Q159.89 58.38 159.89 59.64Q159.89 60.9 159.41 61.95Q159.36 62.06 159.3 62.17Q158.92 62.9 158.35 63.42Q158.04 63.7 157.68 63.92Q157.4 64.09 157.11 64.21ZM214.33 64.22Q213.53 64.55 212.6 64.55Q211.07 64.55 210.19 63.8Q210.14 63.75 210.09 63.7Q209.96 63.58 209.85 63.43Q209.21 62.62 209.21 61.32Q209.21 59.92 209.77 58.81Q209.78 58.79 209.79 58.77Q210.2 57.98 210.81 57.43Q211.08 57.19 211.4 57Q211.71 56.8 212.04 56.66Q212.81 56.36 213.7 56.36Q215.17 56.36 216.03 57.08Q216.1 57.14 216.18 57.21Q216.31 57.34 216.42 57.49Q217.06 58.3 217.06 59.62Q217.06 61.01 216.49 62.13Q216.48 62.15 216.47 62.17Q216.06 62.97 215.43 63.52Q215.18 63.74 214.89 63.92Q214.62 64.09 214.33 64.22ZM228.15 64.19Q227.32 64.55 226.33 64.55Q224.8 64.55 223.9 63.8Q223.84 63.75 223.78 63.69Q223.61 63.53 223.47 63.35Q222.87 62.55 222.87 61.3Q222.87 59.94 223.42 58.85Q223.44 58.8 223.47 58.75Q223.88 57.95 224.52 57.4Q224.78 57.17 225.08 56.99Q225.33 56.83 225.6 56.72Q226.43 56.36 227.42 56.36Q228.94 56.36 229.83 57.11Q229.9 57.16 229.96 57.22Q230.13 57.39 230.27 57.57Q230.87 58.38 230.87 59.64Q230.87 61.02 230.31 62.12Q230.3 62.15 230.28 62.18Q229.9 62.91 229.32 63.43Q229.02 63.71 228.67 63.92Q228.41 64.08 228.15 64.19ZM240.99 64.21Q240.18 64.55 239.21 64.55Q237.68 64.55 236.78 63.8Q236.72 63.75 236.67 63.69Q236.49 63.53 236.36 63.35Q235.76 62.55 235.76 61.3Q235.76 60.03 236.24 58.99Q236.29 58.88 236.35 58.77Q236.74 58.01 237.34 57.47Q237.63 57.2 237.97 57Q238.27 56.81 238.58 56.69Q239.38 56.36 240.32 56.36Q241.84 56.36 242.74 57.11Q242.8 57.16 242.87 57.22Q243.04 57.39 243.17 57.57Q243.77 58.38 243.77 59.64Q243.77 60.9 243.29 61.95Q243.24 62.06 243.18 62.17Q242.8 62.9 242.23 63.42Q241.92 63.7 241.56 63.92Q241.28 64.09 240.99 64.21ZM122.88 56.43L125.89 56.43L124.98 61.14L121.73 61.14Q120.15 61.14 119.56 60.37Q119.21 59.92 119.21 59.2Q119.21 58.37 119.59 57.78Q119.81 57.43 120.17 57.16Q121.13 56.43 122.88 56.43ZM92.77 62.54Q93.31 61.16 93.89 58.86L94.48 56.46L99.53 56.46L97.93 64.48L91.43 64.48Q92.23 63.91 92.77 62.54Z" fill="#FFFFFF" fill-opacity="1.000000" fill-rule="evenodd"/>
</svg>
