<svg width="261.000000" height="78.000000" viewBox="0 0 261 78" fill="none" xmlns="http://www.w3.org/2000/svg" xmlns:xlink="http://www.w3.org/1999/xlink">
	<desc>
			Created with Pixso.
	</desc>
	<defs>
		<filter id="filter_28_10_dd" x="0.000000" y="0.000000" width="261.000000" height="78.000000" filterUnits="userSpaceOnUse" color-interpolation-filters="sRGB">
			<feFlood flood-opacity="0" result="BackgroundImageFix"/>
			<feColorMatrix in="SourceAlpha" type="matrix" values="0 0 0 0 0 0 0 0 0 0 0 0 0 0 0 0 0 0 127 0" result="hardAlpha"/>
			<feOffset dx="0" dy="4"/>
			<feGaussianBlur stdDeviation="1.33333"/>
			<feComposite in2="hardAlpha" operator="out" k2="-1" k3="1"/>
			<feColorMatrix type="matrix" values="0 0 0 0 0 0 0 0 0 0 0 0 0 0 0 0 0 0 0.25 0"/>
			<feBlend mode="normal" in2="BackgroundImageFix" result="effect_dropShadow_1"/>
			<feBlend mode="normal" in="SourceGraphic" in2="effect_dropShadow_1" result="shape"/>
		</filter>
	</defs>
	<g filter="url(#filter_28_10_dd)">
		<path id="KATANNA" d="M15.7 37.5L20.21 32.8L30.97 46L45.56 46L48.54 38.8L64.14 38.8L67.11 46L75.27 46L60.25 12.4L52.57 12.4L38.48 44.02L25.31 27.37L39.22 12.4L30.58 12.4L15.7 28.09L15.7 12.4L7.98 12.4L7.98 46L15.7 46L15.7 37.5ZM73.3 18.73L84.06 18.73L84.06 46L91.83 46L91.83 18.73L102.59 18.73L102.59 12.4L73.3 12.4L73.3 18.73ZM111.61 38.8L127.21 38.8L130.19 46L138.34 46L123.32 12.4L115.64 12.4L100.67 46L108.63 46L111.61 38.8ZM172.67 46L172.67 12.4L164.98 12.4L164.98 32.8L148.28 12.4L141.85 12.4L141.85 46L149.53 46L149.53 25.59L166.29 46L172.67 46ZM211.46 46L211.46 12.4L203.77 12.4L203.77 32.8L187.07 12.4L180.64 12.4L180.64 46L188.31 46L188.31 25.59L205.07 46L211.46 46ZM225.95 38.8L241.54 38.8L244.52 46L252.68 46L237.65 12.4L229.98 12.4L215 46L222.97 46L225.95 38.8ZM56.37 20.03L61.69 32.89L51.03 32.89L56.37 20.03ZM119.44 20.03L124.76 32.89L114.11 32.89L119.44 20.03ZM233.78 20.03L239.1 32.89L228.44 32.89L233.78 20.03Z" fill="#000000" fill-opacity="1.000000" fill-rule="evenodd"/>
		<path id="студия маникюра" d="M65.28 64.55Q66.37 65.09 67.85 65.09Q69 65.09 70.01 64.72Q70.2 64.65 70.38 64.57Q71.41 64.1 72.07 63.33Q72.17 63.21 72.25 63.1L71.24 62.31Q71.01 62.61 70.73 62.86Q70.33 63.21 69.81 63.45Q69.72 63.49 69.63 63.52Q68.84 63.83 67.92 63.83Q66.29 63.83 65.38 63.02Q65.35 63 65.33 62.97Q65.15 62.81 65.02 62.63Q64.42 61.83 64.42 60.58Q64.42 59.19 64.98 58.09Q64.99 58.06 65.01 58.04Q65.37 57.35 65.9 56.84Q66.24 56.52 66.65 56.27Q66.98 56.07 67.33 55.94Q68.11 55.63 69 55.63Q70.45 55.63 71.34 56.35Q71.76 56.69 72.06 57.2L73.25 56.49Q72.94 55.93 72.49 55.52Q72.11 55.17 71.62 54.93Q70.57 54.39 69.11 54.39Q67.71 54.39 66.53 54.91Q66.24 55.04 65.96 55.21Q65.28 55.6 64.74 56.14Q64.18 56.71 63.78 57.44Q63.67 57.64 63.57 57.84Q63 59.11 63 60.63Q63 61.94 63.55 62.93Q63.57 62.96 63.59 62.99Q63.79 63.33 64.04 63.62Q64.55 64.18 65.28 64.55ZM164.16 65L166.26 54.48L164.84 54.48L164.4 56.67Q164.16 56.1 163.76 55.66Q163.4 55.27 162.92 54.99Q161.9 54.39 160.4 54.39Q159.2 54.39 158.16 54.81Q157.74 54.97 157.35 55.21Q156.78 55.55 156.31 55.99Q155.67 56.61 155.22 57.44Q155.14 57.6 155.06 57.76Q154.46 59.06 154.46 60.63Q154.46 62 155.04 63.01Q155.31 63.48 155.68 63.85Q156.11 64.27 156.66 64.56Q157.7 65.09 159.04 65.09Q160.3 65.09 161.34 64.63Q161.87 64.4 162.33 64.06Q162.77 63.74 163.14 63.33L162.8 65L164.16 65ZM220.8 55.25Q219.61 54.39 217.79 54.39Q216.6 54.39 215.56 54.8Q215.35 54.88 215.15 54.98Q214.52 55.28 214 55.7Q213.51 56.1 213.11 56.61Q212.87 56.9 212.68 57.22Q212.19 58.04 211.95 59.01L209.63 59.01L210.54 54.48L209.12 54.48L207.02 65L208.44 65L209.38 60.32L211.78 60.32L211.78 60.65Q211.78 61.93 212.31 62.91Q212.33 62.95 212.35 62.99Q212.59 63.4 212.91 63.74Q213.37 64.22 213.99 64.55Q215.05 65.09 216.47 65.09Q217.75 65.09 218.85 64.64Q219.22 64.49 219.58 64.28Q220.22 63.9 220.73 63.38Q221.31 62.79 221.72 62.03Q221.82 61.84 221.91 61.65Q222.5 60.37 222.5 58.81Q222.5 57.37 221.84 56.35Q221.58 55.94 221.22 55.6Q221.02 55.41 220.8 55.25ZM234.11 54.94Q233.06 54.39 231.71 54.39Q230.45 54.39 229.41 54.84Q228.98 55.03 228.6 55.28Q228.06 55.65 227.61 56.16L227.95 54.48L226.59 54.48L223.74 68.88L225.16 68.88L226.35 62.79Q226.62 63.45 227.08 63.92Q227.41 64.26 227.83 64.51Q228.85 65.09 230.36 65.09Q231.64 65.09 232.74 64.63Q233.08 64.48 233.41 64.29Q233.98 63.95 234.45 63.5Q235.1 62.88 235.54 62.05Q235.64 61.86 235.73 61.67Q236.31 60.39 236.31 58.83Q236.31 57.48 235.73 56.47Q235.48 56.04 235.14 55.69Q234.7 55.24 234.11 54.94ZM248.04 65L250.14 54.48L248.72 54.48L248.28 56.67Q248.04 56.1 247.64 55.66Q247.28 55.27 246.8 54.99Q245.78 54.39 244.28 54.39Q243.08 54.39 242.04 54.81Q241.62 54.97 241.23 55.21Q240.66 55.55 240.19 55.99Q239.55 56.61 239.1 57.44Q239.02 57.6 238.94 57.76Q238.34 59.06 238.34 60.63Q238.34 62 238.92 63.01Q239.19 63.48 239.56 63.85Q239.99 64.27 240.54 64.56Q241.58 65.09 242.92 65.09Q244.18 65.09 245.22 64.63Q245.75 64.4 246.21 64.06Q246.65 63.74 247.02 63.33L246.68 65L248.04 65ZM79.54 55.74L83.53 55.74L83.79 54.48L74.39 54.48L74.15 55.74L78.11 55.74L76.27 65L77.69 65L79.54 55.74ZM87.07 66.36L94.75 54.48L93.29 54.48L87.55 63.44L85.37 54.48L83.93 54.48L86.56 64.94L85.81 66.05Q85.21 67 84.65 67.37Q84.44 67.52 84.21 67.61Q83.83 67.75 83.39 67.75Q82.67 67.75 82.11 67.45Q81.8 67.27 81.54 67L80.77 68.04Q81.15 68.48 81.83 68.73Q81.89 68.75 81.95 68.76Q82.58 68.97 83.27 68.97Q84.27 68.97 85.03 68.55Q85.15 68.48 85.27 68.4Q86.12 67.84 87.07 66.36ZM104.99 63.75L103.35 63.75L105.2 54.48L97.46 54.48L96.62 57.93Q95.94 60.62 95.21 62.16Q94.58 63.51 93.69 63.72Q93.56 63.75 93.44 63.75L92.89 63.75L92.15 67.53L93.5 67.53L93.99 65L103.42 65L102.91 67.53L104.26 67.53L104.99 63.75ZM111.02 54.48L109.6 54.48L107.48 65L108.85 65L117.5 56.49L115.75 65L117.21 65L119.31 54.48L117.96 54.48L109.31 62.97L111.02 54.48ZM129.36 65L131.44 54.48L126.97 54.48Q124.56 54.48 123.16 55.55Q122.57 55.99 122.23 56.58Q121.75 57.4 121.75 58.5Q121.75 59.53 122.25 60.21Q122.76 60.92 123.82 61.24L120.37 65L121.99 65L125.13 61.46L128.76 61.46L128.05 65L129.36 65ZM150.38 65L152.47 54.48L151.14 54.48L145.08 62.06L142.14 54.48L140.72 54.48L138.62 65L139.92 65L141.6 56.6L144.44 63.72L145.08 63.72L150.74 56.67L149.08 65L150.38 65ZM171.7 54.48L170.28 54.48L168.18 65L169.59 65L170.54 60.36L177.14 60.36L176.21 65L177.64 65L179.74 54.48L178.31 54.48L177.38 59.14L170.78 59.14L171.7 54.48ZM185.2 54.48L183.78 54.48L181.66 65L183.03 65L191.68 56.49L189.93 65L191.39 65L193.49 54.48L192.14 54.48L183.49 62.97L185.2 54.48ZM204.75 65L201.37 59.65L206.61 54.48L205.02 54.48L200.35 59.1L198.02 59.1L198.96 54.48L197.54 54.48L195.42 65L196.83 65L197.78 60.32L200.26 60.32L203.14 65L204.75 65ZM161.11 63.49Q160.3 63.83 159.33 63.83Q157.8 63.83 156.9 63.08Q156.84 63.03 156.78 62.97Q156.61 62.81 156.48 62.63Q155.88 61.83 155.88 60.58Q155.88 59.31 156.36 58.27Q156.41 58.15 156.47 58.05Q156.86 57.29 157.46 56.75Q157.75 56.48 158.09 56.27Q158.39 56.09 158.7 55.96Q159.5 55.63 160.44 55.63Q161.96 55.63 162.86 56.39Q162.92 56.44 162.99 56.5Q163.16 56.67 163.29 56.85Q163.89 57.66 163.89 58.92Q163.89 60.18 163.41 61.23Q163.36 61.34 163.3 61.45Q162.92 62.18 162.35 62.7Q162.04 62.98 161.68 63.2Q161.4 63.37 161.11 63.49ZM218.33 63.49Q217.53 63.83 216.6 63.83Q215.07 63.83 214.19 63.07Q214.14 63.03 214.09 62.98Q213.96 62.86 213.85 62.71Q213.21 61.9 213.21 60.6Q213.21 59.2 213.77 58.09Q213.78 58.07 213.79 58.05Q214.2 57.26 214.81 56.71Q215.08 56.47 215.4 56.27Q215.71 56.08 216.04 55.94Q216.81 55.63 217.7 55.63Q219.17 55.63 220.03 56.36Q220.1 56.42 220.18 56.49Q220.31 56.62 220.42 56.77Q221.06 57.58 221.06 58.9Q221.06 60.29 220.49 61.41Q220.48 61.43 220.47 61.45Q220.06 62.25 219.43 62.8Q219.18 63.02 218.89 63.2Q218.62 63.37 218.33 63.49ZM232.15 63.47Q231.32 63.83 230.33 63.83Q228.8 63.83 227.9 63.08Q227.84 63.03 227.78 62.97Q227.61 62.81 227.47 62.63Q226.87 61.83 226.87 60.58Q226.87 59.22 227.42 58.12Q227.44 58.08 227.47 58.03Q227.88 57.22 228.52 56.67Q228.78 56.45 229.08 56.26Q229.33 56.11 229.6 55.99Q230.43 55.63 231.42 55.63Q232.94 55.63 233.83 56.39Q233.9 56.44 233.96 56.5Q234.13 56.67 234.27 56.85Q234.87 57.66 234.87 58.92Q234.87 60.3 234.31 61.4Q234.3 61.43 234.28 61.46Q233.9 62.19 233.32 62.71Q233.02 62.99 232.67 63.2Q232.41 63.36 232.15 63.47ZM244.99 63.49Q244.18 63.83 243.21 63.83Q241.68 63.83 240.78 63.08Q240.72 63.03 240.67 62.97Q240.49 62.81 240.36 62.63Q239.76 61.83 239.76 60.58Q239.76 59.31 240.24 58.27Q240.29 58.15 240.35 58.05Q240.74 57.29 241.34 56.75Q241.63 56.48 241.97 56.27Q242.27 56.09 242.58 55.96Q243.38 55.63 244.32 55.63Q245.84 55.63 246.74 56.39Q246.8 56.44 246.87 56.5Q247.04 56.67 247.17 56.85Q247.77 57.66 247.77 58.92Q247.77 60.18 247.29 61.23Q247.24 61.34 247.18 61.45Q246.8 62.18 246.23 62.7Q245.92 62.98 245.56 63.2Q245.28 63.37 244.99 63.49ZM126.88 55.71L129.89 55.71L128.98 60.41L125.73 60.41Q124.15 60.41 123.56 59.65Q123.21 59.2 123.21 58.48Q123.21 57.65 123.59 57.06Q123.81 56.7 124.17 56.44Q125.13 55.71 126.88 55.71ZM96.77 61.82Q97.31 60.43 97.89 58.13L98.48 55.74L103.54 55.74L101.93 63.75L95.43 63.75Q96.23 63.19 96.77 61.82Z" fill="#000000" fill-opacity="1.000000" fill-rule="evenodd"/>
	</g>
</svg>
