<svg width="61.500000" height="145.157227" viewBox="0 0 61.5 145.157" fill="none" xmlns="http://www.w3.org/2000/svg" xmlns:xlink="http://www.w3.org/1999/xlink">
	<desc>
			Created with Pixso.
	</desc>
	<defs/>
	<path id="Vector 2" d="M0.16 72.89C27.95 72.89 32.53 121.05 31.34 145.13" stroke="#FFFFFF" stroke-opacity="1.000000" stroke-width="1.000000"/>
	<path id="Vector 2" d="M61.34 72.57C34.59 72.57 30.19 120.73 31.33 144.81" stroke="#FFFFFF" stroke-opacity="1.000000" stroke-width="1.000000"/>
	<path id="Vector 2" d="M0 72.57C14.58 72.57 21.34 83.37 25.66 99.45C29.57 114.02 31.73 133.37 31.17 144.81" stroke="#FFFFFF" stroke-opacity="1.000000" stroke-width="1.000000"/>
	<path id="Vector 2" d="M0.33 72.89C7.87 72.89 14.15 69.69 17.83 66.24C21.05 63.21 21.99 60.49 23.92 52.91C27.61 38.42 30.89 12.01 30.35 0.66" stroke="#FFFFFF" stroke-opacity="1.000000" stroke-width="1.000000"/>
	<path id="Vector 2" d="M61.5 72.26C53.96 72.26 47.21 68.15 42.84 64.92C38.75 61.9 37.32 57.84 35.23 50.06C31.32 35.5 29.76 11.46 30.32 0.02" stroke="#FFFFFF" stroke-opacity="1.000000" stroke-width="1.000000"/>
</svg>
