<svg width="30.968018" height="73.477051" viewBox="0 0 30.968 73.4771" fill="none" xmlns="http://www.w3.org/2000/svg" xmlns:xlink="http://www.w3.org/1999/xlink">
	<desc>
			Created with Pixso.
	</desc>
	<defs/>
	<path id="Vector 2" d="M0.08 36.89C14.07 36.89 16.38 61.26 15.78 73.45" stroke="#FFFFFF" stroke-opacity="1.000000" stroke-width="1.000000"/>
	<path id="Vector 2" d="M30.89 36.73C17.42 36.73 15.2 61.1 15.77 73.29" stroke="#FFFFFF" stroke-opacity="1.000000" stroke-width="1.000000"/>
	<path id="Vector 2" d="M0 36.73C7.34 36.73 10.74 42.2 12.92 50.34C14.89 57.71 15.98 67.5 15.69 73.29" stroke="#FFFFFF" stroke-opacity="1.000000" stroke-width="1.000000"/>
	<path id="Vector 2" d="M0.17 36.89C3.96 36.89 7.12 35.27 8.98 33.53C10.6 32 11.07 30.62 12.04 26.78C13.9 19.45 15.55 6.09 15.28 0.34" stroke="#FFFFFF" stroke-opacity="1.000000" stroke-width="1.000000"/>
	<path id="Vector 2" d="M30.96 36.57C27.17 36.57 23.77 34.5 21.57 32.86C19.51 31.33 18.79 29.28 17.74 25.34C15.77 17.97 14.98 5.81 15.27 0.02" stroke="#FFFFFF" stroke-opacity="1.000000" stroke-width="1.000000"/>
</svg>
