<svg width="39.255127" height="92.708008" viewBox="0 0 39.2551 92.708" fill="none" xmlns="http://www.w3.org/2000/svg" xmlns:xlink="http://www.w3.org/1999/xlink">
	<desc>
			Created with Pixso.
	</desc>
	<defs/>
	<path id="Vector 2" d="M0.1 46.55C17.84 46.55 20.76 77.3 20 92.68" stroke="#FFFFFF" stroke-opacity="1.000000" stroke-width="1.000000"/>
	<path id="Vector 2" d="M39.15 46.35C22.08 46.35 19.27 77.1 20 92.48" stroke="#FFFFFF" stroke-opacity="1.000000" stroke-width="1.000000"/>
	<path id="Vector 2" d="M0 46.35C9.3 46.35 13.62 53.24 16.38 63.51C18.87 72.81 20.25 85.17 19.89 92.48" stroke="#FFFFFF" stroke-opacity="1.000000" stroke-width="1.000000"/>
	<path id="Vector 2" d="M0.21 46.55C5.02 46.55 9.03 44.51 11.38 42.3C13.44 40.37 14.03 38.63 15.27 33.79C17.62 24.54 19.71 7.68 19.37 0.43" stroke="#FFFFFF" stroke-opacity="1.000000" stroke-width="1.000000"/>
	<path id="Vector 2" d="M39.25 46.15C34.44 46.15 30.13 43.53 27.34 41.46C24.73 39.54 23.82 36.94 22.48 31.98C19.99 22.68 18.99 7.33 19.35 0.02" stroke="#FFFFFF" stroke-opacity="1.000000" stroke-width="1.000000"/>
</svg>
